<svg xmlns="http://www.w3.org/2000/svg" width="158" height="62" viewBox="0 0 158 62" fill="none"><path d="M37.6289 7.51283C37.7026 7.16923 37.8007 6.94834 38.1934 6.9238C39.8869 6.80108 41.5804 6.50657 43.2738 6.53111C45.36 6.55565 46.7589 8.00369 47.0289 10.2371C48.1088 8.00369 48.9433 5.6721 49.5568 3.26689C49.5323 3.24235 49.5078 3.2178 49.4587 3.2178C47.7897 2.08882 45.8754 1.76976 43.9119 1.69613C39.9114 1.52433 36.0336 2.28517 32.1804 3.34052C31.984 3.3896 31.7386 3.70866 31.6895 3.92955C31.3459 5.57393 25.3574 34.731 25.3574 34.731H29.8488C31.1005 34.731 32.2049 33.7739 32.4504 32.5222C32.4994 32.5222 37.359 8.96087 37.6289 7.51283Z" fill="white"></path><path d="M52.8461 7.4375C49.2628 15.1686 43.2743 21.967 35.4941 25.5748C48.0847 29.1335 56.3803 16.8129 52.8461 7.4375Z" fill="white"></path><path d="M20.0067 18.583C18.6077 21.4545 10.6067 21.43 7.73518 20.5955C9.55136 16.5214 14.2882 14.0916 18.6323 15.8587C19.9576 16.3987 20.5466 17.5031 20.0067 18.583ZM23.8354 13.5762C14.6809 4.78982 -0.928513 14.8279 1.57488 26.7804C3.12109 34.2169 11.2448 35.8613 17.7978 34.1187C21.9701 33.0143 21.4547 28.9892 21.4547 28.9892C16.2271 30.1918 6.31168 29.112 7.1216 25.1605C11.1467 26.2895 17.2579 26.5349 21.5529 24.3506C27.1487 21.4791 26.1915 16.2023 23.8354 13.5762Z" fill="white"></path><path d="M73.9029 16.321C73.1176 20.0025 72.3813 23.684 71.5959 27.3409C71.5223 27.6599 71.3505 27.9544 71.1296 28.1508C69.2643 29.7952 67.1045 30.3351 64.6993 29.7706C60.0607 28.7153 60.8215 22.1868 62.4414 19.0453C63.9139 16.1738 67.2518 14.5785 70.6633 14.9957C74.0747 15.4866 74.0011 15.9038 73.9029 16.321ZM80.8977 12.0751C77.0199 10.8234 72.3567 10.2344 68.9698 10.2344C59.9625 10.2344 54.2685 18.2845 54.5385 25.3529C54.6367 28.0772 55.5693 34.2129 63.8158 34.9247C66.0983 35.121 68.3071 34.8265 70.2215 33.4275C70.246 33.4275 70.3687 33.3048 70.3442 33.4766C70.2706 33.8693 70.1233 34.7283 70.1233 34.7283C70.1233 34.7283 74.4183 34.7283 76.48 34.7283C76.8726 34.7283 76.9217 34.4583 76.9708 34.1884C78.4434 27.0709 79.916 19.9534 81.364 12.8114C81.4377 12.3942 81.3395 12.2224 80.8977 12.0751Z" fill="white"></path><path d="M139.703 29.4092C134.745 28.4029 136.439 21.899 137.469 19.9601C139.973 15.3215 143.36 15.1251 145.299 15.4197C147.851 15.8123 149.299 17.6285 149.152 20.6964C148.931 25.335 145.47 30.5872 139.703 29.4092ZM155.239 18.8557C154.772 13.2353 150.281 10.2656 144.931 10.2656C133.665 10.2656 129.959 19.592 130.303 26.0959C130.622 32.3298 136.193 35.2259 141.764 34.7105C146.968 34.3914 150.87 32.0598 153.275 27.4457C154.674 24.746 155.558 21.9236 155.239 18.8557Z" fill="white"></path><path d="M79.9414 45.2339L80.7759 41.1352C80.8986 40.6689 81.3649 40.3253 81.8558 40.3008C84.3837 40.2271 85.2427 39.7854 86.4944 38.4355C87.4516 37.2329 88.1879 36.2512 88.9978 35.1222C89.096 34.9749 89.1205 34.7049 89.0714 34.5086C87.697 27.6366 84.261 10.211 84.261 10.211C84.261 10.211 90.5195 10.1619 90.9121 12.6653C91.673 17.4512 93.4646 27.1212 93.5382 27.5138C93.7591 27.1457 99.6249 17.1321 102.374 12.3463C103.724 9.99012 108.853 10.2356 110.547 10.2356C105.491 18.6293 95.6735 34.8767 94.1518 37.4047C90.1758 43.9577 86.6662 45.283 83.0093 45.2339C82.0276 45.2339 79.9414 45.2339 79.9414 45.2339Z" fill="white"></path><path d="M126.4 27.9795C126.057 29.6975 125.394 32.839 125.37 32.9372C125.345 33.109 125.247 33.3299 125.001 33.4035C121.615 34.6552 118.007 35.2442 114.718 34.0907C104.091 30.3602 106.938 13.3764 118.056 10.6767C123.504 9.35134 128.953 11.2657 129.223 11.3639C129.542 11.462 129.714 11.7811 129.665 12.0756C129.468 13.0083 128.855 16.0025 128.83 16.1252C125.762 15.1435 122.523 14.4317 119.381 15.5116C113.123 17.696 111.773 28.3476 117.982 29.5993C120.952 30.2129 123.676 29.1576 126.4 27.9795Z" fill="white"></path><path d="M97.8052 55.1349C98.9234 55.3631 101.659 55.2946 101.731 53.5601C101.731 52.8754 100.803 52.2135 99.9226 52.0309C98.8282 51.8027 98.1383 51.8027 97.0439 52.0309C96.3777 52.282 96.1636 51.6429 96.7822 51.4375C97.948 51.0267 102.516 50.9354 102.73 53.5601C102.54 56.1619 98.5665 55.9565 97.6625 55.7967C97.3056 55.7283 97.0439 55.5685 97.0439 55.1349V52.9667C97.0439 52.4646 97.829 52.4646 97.829 52.9667L97.8052 55.1349Z" fill="#E1251B"></path><path d="M106.394 52.0946C105.514 52.0946 104.015 54.6964 103.563 55.6322C103.301 56.1799 102.468 55.7919 102.73 55.2442C103.206 54.24 104.99 51.2273 106.37 51.2501C107.774 51.2273 109.534 54.24 110.01 55.2442C110.272 55.7919 109.439 56.2027 109.177 55.6322C108.749 54.6964 107.274 52.0946 106.394 52.0946Z" fill="#E1251B"></path><path d="M112.604 55.0208C113.484 55.0208 114.983 52.419 115.435 51.4833C115.697 50.9355 116.53 51.3235 116.268 51.8713C115.792 52.8755 114.008 55.9109 112.628 55.8653C111.224 55.8881 109.464 52.8755 108.988 51.8713C108.726 51.3007 109.559 50.9127 109.82 51.4833C110.225 52.419 111.7 55.0208 112.604 55.0208Z" fill="#E1251B"></path><path d="M117.743 51.6638V55.4524C117.743 56.023 116.862 56.0002 116.862 55.4296V51.6638C116.862 51.0704 117.743 51.0704 117.743 51.6638Z" fill="#E1251B"></path><path d="M122.025 55.0208C122.905 55.0208 124.404 52.419 124.856 51.4833C125.118 50.9355 125.95 51.3235 125.689 51.8713C125.213 52.8755 123.429 55.9109 122.049 55.8653C120.645 55.8881 118.884 52.8755 118.409 51.8713C118.147 51.3007 118.98 50.9127 119.241 51.4833C119.646 52.419 121.121 55.0208 122.025 55.0208Z" fill="#E1251B"></path><path d="M128.877 53.9476C129.138 54.4725 129.876 54.9061 130.613 55.0659C131.708 55.2941 132.398 55.2941 133.492 55.0659C134.158 54.8605 134.372 55.4767 133.754 55.6821C132.54 56.0701 128.044 56.207 127.782 53.5824C127.925 51.0718 131.517 51.1403 132.874 51.3001C133.54 51.3914 133.397 52.0532 132.707 51.9163C131.779 51.8022 129.305 51.6652 128.829 53.24H131.375C131.779 53.24 131.779 53.9476 131.375 53.9476H128.877Z" fill="#E1251B"></path><path d="M143.08 55.1349C144.198 55.3631 146.934 55.2946 147.005 53.5601C147.005 52.8754 146.077 52.2135 145.197 52.0309C144.103 51.8027 143.413 51.8027 142.318 52.0309C141.652 52.282 141.438 51.6429 142.057 51.4375C143.222 51.0267 147.79 50.9354 148.004 53.5601C147.814 56.1619 143.817 55.9565 142.937 55.7967C142.58 55.7283 142.318 55.5685 142.318 55.1349V52.9667C142.318 52.4646 143.103 52.4646 143.103 52.9667L143.08 55.1349Z" fill="#E1251B"></path><path d="M151.645 52.0946C150.764 52.0946 149.266 54.6964 148.814 55.6322C148.552 56.1799 147.719 55.7919 147.981 55.2442C148.457 54.24 150.241 51.2273 151.621 51.2501C153.025 51.2273 154.785 54.24 155.261 55.2442C155.523 55.7919 154.69 56.2027 154.428 55.6322C154.024 54.6964 152.525 52.0946 151.645 52.0946Z" fill="#E1251B"></path><path d="M127.163 51.6638V55.4524C127.163 56.023 126.283 56.0002 126.283 55.4296V51.6638C126.283 51.0704 127.163 51.0704 127.163 51.6638Z" fill="#E1251B"></path><path d="M137.893 54.3299C137.346 53.3713 136.727 52.0704 136.323 52.0476C135.3 52.0476 135.752 53.9875 135.752 55.5167C135.752 56.0416 134.872 56.0416 134.872 55.4482C134.872 53.5083 134.443 51.2031 136.37 51.2031C136.941 51.2031 137.465 52.0019 137.941 52.7779C138.488 53.7593 139.154 55.0374 139.558 55.0602C140.581 55.0602 140.106 53.1659 140.106 51.6368C140.106 51.1118 140.986 51.1118 140.986 51.7052C140.986 53.6452 141.438 55.9047 139.511 55.9047C138.94 55.9047 138.369 55.0831 137.893 54.3299Z" fill="#E1251B"></path><path fill-rule="evenodd" clip-rule="evenodd" d="M87.7966 52.3516C87.8204 52.4885 87.7966 53.0819 87.2256 53.8807C86.6309 54.7708 87.5587 56.2543 89.4382 55.8891C89.8427 56.0261 90.2947 56.0489 90.5802 56.0489C90.8657 56.0489 91.3177 56.0261 91.7222 55.8891C93.6017 56.2771 94.5295 54.7708 93.9347 53.8807C93.3638 53.0819 93.3638 52.4885 93.3638 52.3516H87.7966Z" fill="#E1251B"></path><path fill-rule="evenodd" clip-rule="evenodd" d="M90.5799 56.0497C88.748 56.004 88.4149 55.2052 88.9145 55.0227C89.2 54.9314 89.6045 54.7488 89.6045 54.7488C89.4142 53.8359 89.7234 52.6719 90.5799 52.6719C91.4364 52.6719 91.7457 53.8815 91.5554 54.7716C91.5554 54.7716 91.936 54.9085 92.2453 55.0227C92.7211 55.2052 92.4119 56.004 90.5799 56.0497Z" fill="#0075C9"></path><path fill-rule="evenodd" clip-rule="evenodd" d="M89.8908 55.4084C89.415 54.1074 89.8432 52.875 90.5808 52.875C91.2945 52.875 91.7703 54.0618 91.2707 55.4084C91.2707 55.4084 91.0328 55.3627 90.557 55.3627C90.2001 55.3627 89.8908 55.4084 89.8908 55.4084Z" fill="#FFD100"></path><path fill-rule="evenodd" clip-rule="evenodd" d="M90.58 56.0741C91.3175 56.0741 91.9123 55.9143 91.9123 55.7089C91.9123 55.5035 91.3413 55.3438 90.58 55.3438C89.8425 55.3438 89.2715 55.5035 89.2715 55.7089C89.2715 55.9143 89.8425 56.0741 90.58 56.0741Z" fill="#F18A00"></path><path fill-rule="evenodd" clip-rule="evenodd" d="M88.1543 52.9922H89.0346C89.1773 52.9922 89.2963 53.1063 89.2963 53.2432V53.8138C89.2963 53.9508 89.1773 54.0649 89.0346 54.0649H88.1543C88.0115 54.0649 87.8926 53.9508 87.8926 53.8138V53.2432C87.8926 53.1063 88.0115 52.9922 88.1543 52.9922Z" fill="#0075C9"></path><path d="M88.2479 53.125H88.9379C89.0568 53.125 89.1282 53.2163 89.1282 53.3076V53.7184C89.1282 53.8097 89.0331 53.901 88.9379 53.901H88.2479C88.1528 53.901 88.0576 53.8097 88.0576 53.7184V53.3076C88.0576 53.2163 88.129 53.125 88.2479 53.125Z" fill="#2D2A26"></path><path fill-rule="evenodd" clip-rule="evenodd" d="M89.1278 53.6271C88.8185 53.6043 88.6996 53.2391 88.6758 53.125H88.9375C89.0564 53.125 89.1278 53.2163 89.1278 53.3076V53.6271Z" fill="#FFD100"></path><path fill-rule="evenodd" clip-rule="evenodd" d="M88.5096 53.125C88.4859 53.2163 88.3907 53.6043 88.0576 53.6271V53.3076C88.0576 53.2163 88.1528 53.125 88.2479 53.125H88.5096Z" fill="#FFD100"></path><path fill-rule="evenodd" clip-rule="evenodd" d="M92.126 52.9922H93.0062C93.149 52.9922 93.2679 53.1063 93.2679 53.2432V53.8138C93.2679 53.9508 93.149 54.0649 93.0062 54.0649H92.126C91.9832 54.0649 91.8643 53.9508 91.8643 53.8138V53.2432C91.888 53.1063 92.007 52.9922 92.126 52.9922Z" fill="#0075C9"></path><path d="M92.245 53.125H92.9588C93.0539 53.125 93.1491 53.2163 93.1491 53.3076V53.7184C93.1491 53.8097 93.0539 53.901 92.9588 53.901H92.245C92.1499 53.901 92.0547 53.8097 92.0547 53.7184V53.3076C92.0547 53.2163 92.1261 53.125 92.245 53.125Z" fill="#2D2A26"></path><path fill-rule="evenodd" clip-rule="evenodd" d="M93.1249 53.6271C92.8156 53.6043 92.6966 53.2391 92.6729 53.125H92.9346C93.0297 53.125 93.1249 53.2163 93.1249 53.3076V53.6271V53.6271Z" fill="#FFD100"></path><path fill-rule="evenodd" clip-rule="evenodd" d="M92.5067 53.125C92.4829 53.2163 92.3878 53.6043 92.0547 53.6271V53.3076C92.0547 53.2163 92.1499 53.125 92.245 53.125H92.5067Z" fill="#FFD100"></path><path fill-rule="evenodd" clip-rule="evenodd" d="M92.4119 50.1361C92.3167 49.8394 92.2929 49.6797 92.6022 49.6797H93.2446C93.6252 49.6797 93.4587 49.9536 93.4349 50.2503C93.3873 50.6383 93.3873 50.7524 93.3873 50.7524C93.3873 50.7524 92.4357 50.159 92.4119 50.1361Z" fill="#E1251B"></path><path fill-rule="evenodd" clip-rule="evenodd" d="M90.5799 52.3282C89.6282 52.3282 88.2959 52.4195 87.4632 52.4652C86.8209 52.5108 86.3213 52.0315 86.7495 51.5979C87.6774 50.6393 89.9137 49.4297 90.5799 49.4297C91.2936 49.4297 93.5062 50.6393 94.4103 51.5979C94.8385 52.0543 94.4103 52.4652 93.7679 52.4652C93.0542 52.4652 91.5315 52.3282 90.5799 52.3282Z" fill="#F18A00"></path><path d="M91.1045 54.4735C91.1045 54.405 91.1521 54.3594 91.2234 54.3594C91.2948 54.3594 91.3424 54.405 91.3424 54.4735C91.3424 54.542 91.2948 54.5876 91.2234 54.5876C91.1521 54.5876 91.1045 54.542 91.1045 54.4735Z" fill="#231F20"></path><path fill-rule="evenodd" clip-rule="evenodd" d="M90.5793 55.3195C90.1987 55.3195 89.8894 55.3651 89.8894 55.3651C89.4373 54.087 89.8418 52.9002 90.5793 52.9002C91.3168 52.9002 91.7213 54.1099 91.2693 55.3651C91.2693 55.3651 90.9838 55.3195 90.5793 55.3195ZM91.2693 55.4108C91.6499 55.4792 91.8878 55.5705 91.8878 55.6847C91.8878 55.8672 91.3168 56.027 90.6031 56.027C89.8894 56.027 89.2946 55.8901 89.2946 55.6847C89.2946 55.5705 89.5325 55.4564 89.9132 55.4108C89.9132 55.4108 90.3176 55.3651 90.5793 55.3651C90.841 55.3651 91.2693 55.4108 91.2693 55.4108ZM91.3168 55.388C91.7927 54.0642 91.3406 52.8546 90.5793 52.8546C89.8418 52.8546 89.366 54.0642 89.8418 55.388C89.4611 55.4564 89.2232 55.5705 89.2232 55.7075C89.2232 55.7531 89.247 55.7988 89.2946 55.8216C88.676 55.5705 88.6284 55.1369 88.9615 55.0228C89.247 54.9315 89.6039 54.7946 89.6039 54.7946C89.4135 53.9045 89.699 52.7176 90.5555 52.7176C91.412 52.7176 91.6975 53.9045 91.5072 54.7946C91.5072 54.7946 91.864 54.9315 92.1495 55.0228C92.4826 55.1369 92.435 55.5477 91.8164 55.8216C91.864 55.7759 91.8878 55.7531 91.8878 55.7075C91.9354 55.5705 91.6737 55.4564 91.3168 55.388ZM92.4588 50.1386C92.3874 49.8648 92.3874 49.7506 92.6253 49.7506H93.1725C93.5294 49.7506 93.3867 50.0017 93.3629 50.2756C93.3391 50.4353 93.3391 50.5723 93.3153 50.6636C93.0536 50.4582 92.7443 50.2984 92.4588 50.1386ZM91.8164 55.8901C93.577 56.1639 94.4335 54.7489 93.8625 53.9045C93.4342 53.2882 93.3153 52.7633 93.3153 52.4894C92.1733 52.4209 91.3644 52.3753 90.5793 52.3753C89.7942 52.3753 88.9853 52.4438 87.8433 52.4894C87.8195 52.7633 87.7244 53.2654 87.2961 53.9045C86.7251 54.7489 87.5816 56.1868 89.3422 55.8901C88.6046 55.6162 88.5095 55.1597 88.8901 55C89.1756 54.8858 89.5801 54.7489 89.5801 54.7489C89.3898 53.836 89.7228 52.6264 90.5793 52.6264C91.4358 52.6264 91.7689 53.836 91.5785 54.7489C91.5785 54.7489 91.983 54.8858 92.2685 55C92.6729 55.1597 92.5778 55.6162 91.8164 55.8901ZM90.5793 52.2612C89.5801 52.284 88.6522 52.3525 87.534 52.421C86.8441 52.4666 86.4634 52.033 86.8917 51.5765C87.534 50.9146 89.699 49.5224 90.5793 49.5224C91.4596 49.5224 93.6246 50.8918 94.2669 51.5765C94.6952 52.033 94.3145 52.4666 93.6246 52.421C92.5064 52.3525 91.5785 52.284 90.5793 52.2612ZM92.3399 50.0702C92.3399 50.0473 92.3161 50.0245 92.3161 49.9789C92.2685 49.8191 92.3161 49.6365 92.6016 49.6365H93.2439C93.6246 49.6365 93.577 49.8876 93.5056 50.1386C93.458 50.3212 93.4342 50.5266 93.4105 50.732C93.4105 50.732 93.9339 51.0972 94.2194 51.3483C95.1472 52.1014 94.5524 52.5807 93.6722 52.5351C93.577 52.5351 93.5056 52.5351 93.4105 52.5122C93.4105 52.7633 93.4818 53.2198 93.8863 53.7447C94.9093 54.9087 93.5532 56.3693 91.6499 55.9585C91.3406 56.0498 90.841 56.0955 90.5555 56.0955C90.27 56.0955 89.7704 56.0498 89.4611 55.9585C87.5578 56.3693 86.2017 54.9087 87.2248 53.7447C87.6292 53.2198 87.7006 52.7633 87.7006 52.5122L87.4389 52.5351C86.5586 52.5807 85.9638 52.1014 86.8917 51.3483C88.2478 50.2528 89.9132 49.4311 90.5317 49.4311C90.9362 49.4083 91.6023 49.6594 92.3399 50.0702Z" fill="#2D2A26"></path><path d="M89.0346 54.0883H88.1543C88.0115 54.0883 87.8926 53.9742 87.8926 53.8373V53.2667C87.8926 53.1297 88.0115 53.0156 88.1543 53.0156H89.0346C89.1773 53.0156 89.2963 53.1297 89.2963 53.2667V53.8373C89.2963 53.9742 89.1773 54.0883 89.0346 54.0883ZM88.1543 53.0156C88.0115 53.0156 87.9164 53.1069 87.9164 53.2439V53.8144C87.9164 53.9514 88.0353 54.0427 88.1543 54.0427H89.0346C89.1773 54.0427 89.2725 53.9285 89.2725 53.8144V53.2439C89.2725 53.1069 89.1535 53.0156 89.0346 53.0156H88.1543Z" fill="#2D2A26"></path><path d="M93.0297 54.0883H92.1494C92.0067 54.0883 91.8877 53.9742 91.8877 53.8373V53.2667C91.8877 53.1297 92.0067 53.0156 92.1494 53.0156H93.0297C93.1724 53.0156 93.2914 53.1297 93.2914 53.2667V53.8373C93.2914 53.9742 93.1724 54.0883 93.0297 54.0883ZM92.1256 53.0156C91.9829 53.0156 91.8877 53.1069 91.8877 53.2439V53.8144C91.8877 53.9514 91.9829 54.0427 92.1256 54.0427H93.0059C93.1486 54.0427 93.2438 53.9285 93.2438 53.8144V53.2439C93.2438 53.1069 93.1248 53.0156 93.0059 53.0156H92.1256Z" fill="#2D2A26"></path><path d="M39.6578 56.0808C39.2106 56.0808 38.8281 56 38.5102 55.8384C38.1976 55.6767 37.9713 55.445 37.8312 55.1433C37.6965 54.8362 37.675 54.4698 37.7666 54.0441L38.4536 50.795H39.5447L38.8739 53.9633C38.7823 54.4051 38.8065 54.7149 38.9466 54.8927C39.0867 55.0651 39.3911 55.1514 39.8599 55.1514C40.2963 55.1514 40.6304 55.0544 40.8621 54.8604C41.0938 54.661 41.2527 54.362 41.339 53.9633L42.0098 50.795H43.1009L42.4139 54.0441C42.2684 54.7284 41.9694 55.2403 41.5168 55.5797C41.0695 55.9138 40.4499 56.0808 39.6578 56.0808ZM42.8882 56L43.6965 52.169H44.7067L44.6744 52.5327C44.8576 52.4142 45.0758 52.3118 45.3291 52.2256C45.5877 52.134 45.849 52.0882 46.1131 52.0882C47.0829 52.0882 47.4655 52.5731 47.2607 53.543L46.7435 56H45.6524L46.1615 53.5996C46.2154 53.3409 46.2047 53.1577 46.1292 53.05C46.0538 52.9422 45.8814 52.8883 45.612 52.8883C45.4126 52.8883 45.2213 52.926 45.0381 53.0015C44.8549 53.0769 44.6933 53.1712 44.5532 53.2844L43.9793 56H42.8882ZM49.0895 56.0808C48.7608 56.0808 48.4752 56.0216 48.2328 55.903C47.9957 55.7845 47.826 55.5932 47.7236 55.3292C47.6266 55.0598 47.6239 54.7068 47.7155 54.2704C47.8125 53.8124 47.9741 53.4218 48.2004 53.0985C48.4267 52.7752 48.6988 52.5273 49.0167 52.3549C49.3346 52.1771 49.6741 52.0882 50.0351 52.0882C50.2506 52.0882 50.4365 52.1124 50.5928 52.1609C50.749 52.2094 50.8945 52.2956 51.0292 52.4196L51.0777 52.169H52.1688L51.3606 56H50.4231L50.4311 55.6444C50.2318 55.7899 50.0243 55.9003 49.8088 55.9758C49.5987 56.0458 49.3589 56.0808 49.0895 56.0808ZM49.5583 55.2807C49.8977 55.2807 50.2102 55.1648 50.4958 54.9331L50.8514 53.2278C50.6844 53.0015 50.45 52.8883 50.1483 52.8883C49.464 52.8883 49.0221 53.349 48.8228 54.2704C48.7366 54.6637 48.75 54.9304 48.8632 55.0705C48.9817 55.2106 49.2134 55.2807 49.5583 55.2807ZM55.39 56.0808C55.1044 56.0808 54.8377 56.0593 54.5898 56.0162C54.342 55.9784 54.1453 55.93 53.9998 55.8707L54.1938 54.9655C54.3662 55.0409 54.5656 55.1002 54.7919 55.1433C55.0236 55.181 55.2391 55.1999 55.4385 55.1999C55.7079 55.1999 55.9019 55.1837 56.0204 55.1514C56.139 55.119 56.209 55.0463 56.2306 54.9331C56.2575 54.8038 56.1901 54.7095 56.0285 54.6503C55.8722 54.591 55.6405 54.5075 55.3334 54.3997C55.0047 54.2812 54.7623 54.1357 54.606 53.9633C54.4551 53.7855 54.4147 53.5403 54.4848 53.2278C54.5656 52.8614 54.7515 52.5812 55.0425 52.3872C55.3334 52.1879 55.7914 52.0882 56.4164 52.0882C56.6535 52.0882 56.8744 52.107 57.0792 52.1448C57.2839 52.1771 57.4537 52.2175 57.5884 52.266L57.3944 53.1631C57.2651 53.0931 57.1088 53.0419 56.9256 53.0096C56.7478 52.9718 56.5781 52.953 56.4164 52.953C56.1848 52.953 55.9962 52.9691 55.8507 53.0015C55.7106 53.0338 55.6271 53.1038 55.6001 53.2116C55.5786 53.3302 55.6352 53.4137 55.7699 53.4622C55.9046 53.5107 56.1201 53.5834 56.4164 53.6804C56.8421 53.8205 57.1169 53.9848 57.2408 54.1734C57.3702 54.362 57.4025 54.6098 57.3378 54.917C57.257 55.2995 57.063 55.5905 56.7559 55.7899C56.4542 55.9838 55.9989 56.0808 55.39 56.0808ZM59.6336 56.0808C58.9493 56.0808 58.4698 55.9084 58.195 55.5636C57.9202 55.2133 57.8501 54.7203 57.9848 54.0845C58.1196 53.4487 58.3836 52.9584 58.7769 52.6135C59.1702 52.2633 59.7387 52.0882 60.4823 52.0882C61.1773 52.0882 61.6623 52.2633 61.9371 52.6135C62.2119 52.9584 62.2819 53.4487 62.1472 54.0845C62.0125 54.7203 61.7512 55.2133 61.3632 55.5636C60.9753 55.9084 60.3988 56.0808 59.6336 56.0808ZM59.8357 55.1514C60.1859 55.1514 60.4526 55.0732 60.6358 54.917C60.819 54.7553 60.9537 54.4778 61.04 54.0845C61.1208 53.6912 61.11 53.4164 61.0076 53.2601C60.9052 53.0985 60.6655 53.0176 60.2883 53.0176C59.9435 53.0176 59.6767 53.0985 59.4882 53.2601C59.305 53.4164 59.1729 53.6912 59.0921 54.0845C59.0059 54.4778 59.014 54.7553 59.1164 54.917C59.2187 55.0732 59.4585 55.1514 59.8357 55.1514ZM63.5444 56.0808C62.8331 56.0808 62.5557 55.7198 62.7119 54.9978L63.6575 50.5525H64.7486L63.8192 54.9089C63.7922 55.0436 63.7949 55.1379 63.8273 55.1918C63.865 55.2403 63.9431 55.2645 64.0616 55.2645C64.2017 55.2645 64.3311 55.2457 64.4496 55.2079L64.296 55.9596C64.0697 56.0404 63.8192 56.0808 63.5444 56.0808ZM66.1021 56.0808C65.6603 56.0808 65.3343 55.9542 65.1242 55.701C64.9194 55.4423 64.8682 55.0651 64.9706 54.5694L65.4798 52.169H66.5709L66.0698 54.5452C66.0159 54.8038 66.0321 54.9924 66.1183 55.1109C66.2045 55.2241 66.3823 55.2807 66.6517 55.2807C66.8403 55.2807 67.0235 55.243 67.2013 55.1675C67.3791 55.0921 67.5354 54.9978 67.6701 54.8846L68.2439 52.169H69.335L68.5268 56H67.5165L67.5488 55.6363C67.3603 55.7656 67.1474 55.8734 66.9103 55.9596C66.6733 56.0404 66.4038 56.0808 66.1021 56.0808ZM71.387 56.0808C70.9775 56.0808 70.6273 56.0054 70.3363 55.8545C70.0508 55.7036 69.8487 55.48 69.7302 55.1837C69.617 54.8873 69.6062 54.5209 69.6978 54.0845C69.8379 53.411 70.1262 52.9099 70.5626 52.5812C70.9991 52.2525 71.5675 52.0882 72.268 52.0882C72.5374 52.0882 72.7637 52.107 72.9469 52.1448C73.1355 52.1825 73.3133 52.2444 73.4803 52.3306L73.3106 53.1146C73.1921 53.05 73.0466 52.9988 72.8742 52.9611C72.7071 52.9233 72.5212 52.9045 72.3165 52.9045C71.907 52.9045 71.5756 52.9907 71.3224 53.1631C71.0691 53.3302 70.8967 53.6373 70.8051 54.0845C70.7189 54.494 70.7405 54.793 70.8698 54.9816C71.0045 55.1702 71.317 55.2645 71.8073 55.2645C71.9959 55.2645 72.1845 55.2457 72.3731 55.2079C72.5617 55.1702 72.7422 55.1136 72.9146 55.0382L72.7449 55.8464C72.3461 56.0027 71.8935 56.0808 71.387 56.0808ZM74.6384 51.4658L74.8162 50.6091H76.0043L75.8265 51.4658H74.6384ZM73.7655 56L74.404 52.9772H73.8302L74.0969 52.169H75.6648L74.8566 56H73.7655ZM78.097 51.7811L79.0668 50.2697H80.0125L78.9779 51.7811H78.097ZM77.6767 56.0808C76.9924 56.0808 76.5128 55.9084 76.238 55.5636C75.9632 55.2133 75.8932 54.7203 76.0279 54.0845C76.1626 53.4487 76.4266 52.9584 76.82 52.6135C77.2133 52.2633 77.7818 52.0882 78.5253 52.0882C79.2204 52.0882 79.7053 52.2633 79.9801 52.6135C80.2549 52.9584 80.325 53.4487 80.1903 54.0845C80.0556 54.7203 79.7942 55.2133 79.4063 55.5636C79.0184 55.9084 78.4418 56.0808 77.6767 56.0808ZM77.8787 55.1514C78.229 55.1514 78.4957 55.0732 78.6789 54.917C78.8621 54.7553 78.9968 54.4778 79.083 54.0845C79.1638 53.6912 79.1531 53.4164 79.0507 53.2601C78.9483 53.0985 78.7085 53.0176 78.3314 53.0176C77.9865 53.0176 77.7198 53.0985 77.5312 53.2601C77.348 53.4164 77.216 53.6912 77.1352 54.0845C77.049 54.4778 77.0571 54.7553 77.1594 54.917C77.2618 55.0732 77.5016 55.1514 77.8787 55.1514ZM80.5529 56L81.3611 52.169H82.3714L82.3391 52.5327C82.5223 52.4142 82.7405 52.3118 82.9938 52.2256C83.2524 52.134 83.5137 52.0882 83.7777 52.0882C84.7476 52.0882 85.1302 52.5731 84.9254 53.543L84.4082 56H83.317L83.8262 53.5996C83.8801 53.3409 83.8693 53.1577 83.7939 53.05C83.7185 52.9422 83.546 52.8883 83.2766 52.8883C83.0773 52.8883 82.886 52.926 82.7028 53.0015C82.5196 53.0769 82.358 53.1712 82.2179 53.2844L81.644 56H80.5529Z" fill="white"></path></svg>